<svg xml:space="preserve" overflow="visible" height="512" width="512" xmlns="http://www.w3.org/2000/svg"><g fill="#a80030"><path d="M286.117 266.88c-6.363.088 1.204 3.278 9.51 4.556a85.03 85.03 0 0 0 6.232-5.368c-5.173 1.268-10.438 1.296-15.742.811m34.151-8.512c3.789-5.23 6.55-10.955 7.524-16.876-.85 4.221-3.14 7.865-5.297 11.71-11.893 7.489-1.119-4.447-.007-8.983-12.79 16.097-1.756 9.652-2.22 14.15m12.606-32.803c.768-11.458-2.256-7.836-3.272-3.463 1.186.616 2.124 8.076 3.272 3.463M261.99 68.953c3.395.61 7.336 1.077 6.784 1.888 3.714-.815 4.557-1.565-6.784-1.888"/><path d="m268.774 70.84-2.4.496 2.233-.198.167-.297"/><path d="M374.659 229.91c.379 10.289-3.01 15.282-6.065 24.12l-5.5 2.747c-4.5 8.739.436 5.549-2.786 12.5-7.025 6.245-21.32 19.545-25.894 20.76-3.34-.075 2.262-3.942 2.995-5.457-9.404 6.458-7.545 9.695-21.928 13.618l-.421-.935c-35.473 16.688-84.747-16.383-84.099-61.508-.379 2.865-1.076 2.15-1.862 3.307-1.831-23.217 10.721-46.537 31.892-56.058 20.707-10.25 44.983-6.044 59.815 7.78-8.147-10.673-24.364-21.986-43.584-20.927-18.826.297-36.439 12.262-42.316 25.25-9.646 6.072-10.765 23.408-14.967 26.58-5.655 41.56 10.636 59.515 38.195 80.636 4.337 2.925 1.221 3.367 1.809 5.595-9.157-4.288-17.541-10.761-24.435-18.685 3.657 5.353 7.605 10.558 12.708 14.648-8.633-2.925-20.165-20.92-23.533-21.652 14.882 26.645 60.379 46.728 84.201 36.764-11.022.407-25.026.227-37.412-4.351-5.202-2.677-12.276-8.222-11.012-9.26 32.512 12.145 66.097 9.2 94.229-13.352 7.156-5.573 14.974-15.056 17.233-15.187-3.403 5.117.58 2.461-2.032 6.98 7.13-11.502-3.099-4.682 7.372-19.861l3.866 5.325c-1.437-9.546 11.855-21.139 10.506-36.237 3.048-4.617 3.403 4.968.166 15.59 4.49-11.784 1.183-13.678 2.337-23.401 1.247 3.268 2.882 6.742 3.722 10.19-2.925-11.387 3.002-19.177 4.468-25.795-1.445-.64-4.514 5.036-5.216-8.416.103-5.842 1.626-3.063 2.214-4.5-1.148-.66-4.157-5.138-5.988-13.728 1.328-2.019 3.548 5.233 5.354 5.53-1.162-6.83-3.162-12.038-3.244-17.279-5.276-11.026-1.866 1.47-6.147-4.734-5.615-17.516 4.66-4.065 5.354-12.025 8.512 12.333 13.367 31.447 15.594 39.364-1.7-9.652-4.447-19.004-7.8-28.05 2.584 1.086-4.164-19.861 3.36-5.988-8.038-29.573-34.4-57.206-58.65-70.173 2.967 2.716 6.713 6.126 5.367 6.66-12.06-7.18-9.939-7.74-11.667-10.774-9.826-3.998-10.47.322-16.978.007-18.519-9.822-22.088-8.778-39.13-14.932l.775 3.623c-12.269-4.087-14.294 1.55-27.554.014-.808-.63 4.249-2.28 8.41-2.886-11.863 1.565-11.307-2.337-22.914.432 2.861-2.008 5.885-3.335 8.937-5.042-9.673.588-23.093 5.63-18.95 1.044-15.778 7.04-43.8 16.922-59.525 31.666l-.496-3.303c-7.205 8.65-31.421 25.833-33.351 37.037l-1.926.45c-3.75 6.348-6.175 13.543-9.15 20.076-4.904 8.356-7.188 3.215-6.49 4.525-9.645 19.556-14.436 35.99-18.575 49.466 2.95 4.408.07 26.538 1.186 44.25-4.844 87.472 61.39 172.403 133.79 192.012 10.612 3.796 26.394 3.65 39.817 4.04-15.838-4.528-17.885-2.4-33.312-7.779-11.129-5.24-13.569-11.224-21.45-18.065l3.119 5.513c-15.46-5.47-8.99-6.77-21.567-10.754l3.332-4.351c-5.01-.38-13.271-8.445-15.53-12.91l-5.482.216c-6.586-8.127-10.095-13.983-9.84-18.519l-1.77 3.155c-2.008-3.445-24.23-30.476-12.701-24.184-2.142-1.958-4.99-3.187-8.077-8.795l2.348-2.684c-5.549-7.139-10.212-16.288-9.858-19.337 2.96 3.998 5.014 4.745 7.046 5.428-14.01-34.764-14.797-1.915-25.409-35.387l2.245-.18c-1.72-2.592-2.765-5.407-4.15-8.17l.978-9.737c-10.088-11.663-2.822-49.593-1.367-70.395 1.01-8.46 8.42-17.463 14.057-31.584l-3.435-.592c6.565-11.45 37.484-45.988 51.803-44.21 6.936-8.715-1.377-.032-2.734-2.228 15.237-15.767 20.027-11.14 30.31-13.975 11.09-6.583-9.518 2.567-4.26-2.51 19.17-4.898 13.587-11.133 38.595-13.619 2.638 1.501-6.122 2.32-8.32 4.267 15.972-7.815 50.545-6.037 73.001 4.337 26.057 12.177 55.333 48.173 56.487 82.042l1.314.354c-.666 13.462 2.06 29.031-2.663 43.332l3.215-6.77"/><path d="m216.667 275.614-.893 4.462c4.182 5.68 7.5 11.833 12.84 16.274-3.842-7.5-6.696-10.598-11.947-20.736m9.886-.389c-2.213-2.447-3.523-5.393-4.99-8.328 1.403 5.159 4.275 9.592 6.948 14.1l-1.958-5.772m174.931-38.022-.934 2.344c-1.714 12.174-5.414 24.22-11.087 35.388 6.268-11.784 10.322-24.673 12.021-37.732M263.247 65.901c4.302-1.575 10.576-.864 15.14-1.901-5.948.499-11.869.796-17.715 1.55l2.575.351m-151.035 80.314c.991 9.177-6.905 12.74 1.75 6.688 4.638-10.449-1.814-2.886-1.75-6.688m-10.169 42.475c1.993-6.118 2.354-9.794 3.116-13.334-5.51 7.042-2.536 8.544-3.116 13.334"/></g></svg>